<?xml version="1.0" encoding="utf-8"?><svg version="1.1" id="Layer_1" xmlns="http://www.w3.org/2000/svg" xmlns:xlink="http://www.w3.org/1999/xlink" x="0px" y="0px" viewBox="0 0 122.88 120.1" style="enable-background:new 0 0 122.88 120.1" xml:space="preserve"><style type="text/css"><![CDATA[
	.st0{fill:#393939;}
	.st1{fill-rule:evenodd;clip-rule:evenodd;fill:#6BBE66;}
]]></style><g><path class="st0" d="M69.43,4.04c0-2.22,2.19-4.04,4.92-4.04s4.92,1.8,4.92,4.04V21.7c0,2.22-2.19,4.04-4.92,4.04 s-4.92-1.8-4.92-4.04V4.04L69.43,4.04L69.43,4.04z M13.41,57.17c-0.28,0-0.53-1.23-0.53-2.73s0.22-2.72,0.53-2.72h13.44 c0.28,0,0.53,1.23,0.53,2.72c0,1.5-0.22,2.73-0.53,2.73H13.41L13.41,57.17L13.41,57.17z M34.82,57.17c-0.28,0-0.53-1.23-0.53-2.73 s0.22-2.72,0.53-2.72h13.44c0.28,0,0.53,1.23,0.53,2.72c0,1.5-0.22,2.73-0.53,2.73H34.82L34.82,57.17L34.82,57.17z M56.24,57.17 c-0.28,0-0.53-1.23-0.53-2.73s0.22-2.72,0.53-2.72h13.44c0.28,0,0.53,1.22,0.53,2.71c-1.35,0.84-2.64,1.75-3.88,2.74H56.24 L56.24,57.17L56.24,57.17z M13.44,72.8c-0.28,0-0.53-1.23-0.53-2.73c0-1.5,0.22-2.73,0.53-2.73h13.44c0.28,0,0.53,1.23,0.53,2.73 c0,1.51-0.22,2.73-0.53,2.73H13.44L13.44,72.8L13.44,72.8z M34.85,72.8c-0.28,0-0.53-1.23-0.53-2.73c0-1.5,0.22-2.73,0.53-2.73 h13.44c0.28,0,0.53,1.23,0.53,2.73c0,1.51-0.22,2.73-0.53,2.73H34.85L34.85,72.8L34.85,72.8z M13.46,88.43 c-0.28,0-0.53-1.23-0.53-2.73c0-1.51,0.22-2.73,0.53-2.73H26.9c0.28,0,0.53,1.23,0.53,2.73c0,1.5-0.22,2.73-0.53,2.73H13.46 L13.46,88.43L13.46,88.43z M34.88,88.43c-0.28,0-0.53-1.23-0.53-2.73c0-1.51,0.22-2.73,0.53-2.73h13.44c0.28,0,0.53,1.23,0.53,2.73 c0,1.5-0.22,2.73-0.53,2.73H34.88L34.88,88.43L34.88,88.43z M25.21,4.04C25.21,1.81,27.4,0,30.13,0c2.73,0,4.92,1.8,4.92,4.04V21.7 c0,2.22-2.2,4.04-4.92,4.04c-2.73,0-4.92-1.8-4.92-4.04V4.04L25.21,4.04L25.21,4.04z M5.42,38.61h93.77V18.28 c0-0.7-0.28-1.31-0.73-1.75c-0.45-0.45-1.09-0.73-1.75-0.73h-8.99c-1.51,0-2.73-1.23-2.73-2.73c0-1.5,1.22-2.73,2.73-2.73h8.99 c2.2,0,4.18,0.89,5.62,2.33c1.45,1.45,2.33,3.42,2.33,5.62v32.28c-1.79-0.62-3.64-1.12-5.53-1.49v-5.04h0.06H5.42V96.7 c0,0.7,0.28,1.31,0.73,1.75c0.45,0.45,1.09,0.73,1.75,0.73h44.56c0.51,1.89,1.15,3.74,1.91,5.51H7.95c-2.19,0-4.18-0.89-5.62-2.33 C0.89,100.92,0,98.95,0,96.75V18.3c0-2.19,0.89-4.18,2.33-5.62c1.45-1.45,3.42-2.33,5.62-2.33h9.6c1.5,0,2.73,1.23,2.73,2.73 s-1.23,2.73-2.73,2.73h-9.6c-0.7,0-1.31,0.28-1.75,0.73c-0.45,0.45-0.73,1.09-0.73,1.75v20.33L5.42,38.61L5.42,38.61L5.42,38.61z M42.93,15.8c-1.5,0-2.73-1.23-2.73-2.73c0-1.5,1.23-2.73,2.73-2.73h18.3c1.51,0,2.73,1.23,2.73,2.73c0,1.51-1.23,2.73-2.73,2.73 H42.93L42.93,15.8L42.93,15.8z"/><path class="st1" d="M91.09,56.53c8.78,0,16.73,3.56,22.48,9.31c5.74,5.76,9.3,13.71,9.3,22.48s-3.56,16.73-9.3,22.48 c-5.76,5.75-13.71,9.31-22.48,9.31s-16.73-3.56-22.48-9.31c-5.75-5.76-9.31-13.71-9.31-22.48c0-8.77,3.56-16.73,9.31-22.48 C74.36,60.09,82.31,56.53,91.09,56.53L91.09,56.53z M77.09,91.7c-0.15-0.16-0.28-0.33-0.39-0.51c-0.12-0.18-0.21-0.37-0.3-0.57 c-0.28-0.66-0.35-1.36-0.23-2.04c0.12-0.67,0.42-1.31,0.9-1.83l0.18-0.18c1.19-1.13,2.99-1.34,4.4-0.49 c0.2,0.12,0.39,0.26,0.57,0.43l0.02,0.02c1,0.96,2.69,2.53,3.8,3.51l0.95,0.85l11.66-12.23c0.16-0.17,0.34-0.32,0.54-0.45 c0.2-0.14,0.4-0.25,0.61-0.34c0.21-0.09,0.44-0.17,0.67-0.22c0.23-0.05,0.47-0.08,0.7-0.08h0.01c0.23,0,0.46,0.01,0.69,0.05 c0.23,0.04,0.45,0.1,0.69,0.19c0.22,0.08,0.43,0.19,0.63,0.31c0.19,0.12,0.37,0.26,0.55,0.43l0.08,0.08 c0.16,0.16,0.31,0.34,0.44,0.53c0.13,0.19,0.25,0.4,0.34,0.61c0.1,0.21,0.17,0.44,0.22,0.67c0.05,0.23,0.08,0.46,0.09,0.7v0.12 c0,0.21-0.02,0.42-0.06,0.62c-0.04,0.22-0.1,0.45-0.18,0.66c-0.08,0.22-0.19,0.43-0.31,0.63c-0.12,0.2-0.27,0.38-0.43,0.55 L89.83,98.49c-0.17,0.18-0.34,0.33-0.53,0.46c-0.19,0.14-0.4,0.25-0.61,0.35s-0.44,0.17-0.67,0.23s-0.46,0.09-0.7,0.1l-0.06,0 c-0.22,0-0.44-0.01-0.64-0.04l-0.05-0.01c-0.21-0.04-0.42-0.09-0.62-0.16c-0.22-0.08-0.43-0.18-0.63-0.3l-0.03-0.02 c-0.19-0.12-0.37-0.25-0.54-0.39l-0.03-0.03c-0.82-0.76-1.71-1.53-2.6-2.31C80.55,95.02,78.39,93.07,77.09,91.7L77.09,91.7 L77.09,91.7L77.09,91.7z"/></g></svg>