<?xml version="1.0" encoding="utf-8"?>
<!-- Generator: Adobe Illustrator 23.0.3, SVG Export Plug-In . SVG Version: 6.00 Build 0)  -->
<svg version="1.1" id="Icons" xmlns="http://www.w3.org/2000/svg" xmlns:xlink="http://www.w3.org/1999/xlink" x="0px" y="0px"
	 viewBox="0 0 32 32" style="enable-background:new 0 0 32 32;" xml:space="preserve">
<style type="text/css">
	.st0{fill:none;stroke:#4ca1ff;stroke-width:2;stroke-linecap:round;stroke-linejoin:round;stroke-miterlimit:10;}
	.st1{fill:none;stroke:#4ca1ff;stroke-width:2;stroke-linejoin:round;stroke-miterlimit:10;}
</style>
<path class="st0" d="M17.9,23.1c-1.7-0.4-3-2-3-3.8c1.4-0.8,2.4-2.4,2.4-4.2v0c0-0.9,0.7-1.6,1.6-1.6h0l0-1.9c0-2.3-1.7-4.3-3.9-4.6
	c-1.6-0.2-3,0.5-3.9,1.7C10.4,8.5,9.8,8.6,9,9.2c-0.8,0.6-1.3,1.6-1.3,2.6l0,0.8v1.2v1c0,1.8,0.9,3.5,2.4,4.4l0,0
	c0,1.8-1.3,3.4-3,3.8C5,23.7,3.4,25.3,3,27.5C3,27.7,3.2,28,3.4,28h18.1c0.3,0,0.5-0.3,0.4-0.5C21.6,25.3,20,23.6,17.9,23.1z"/>
<path class="st0" d="M13.3,7.2C13.9,5.5,15.3,4.2,17,4c1.6-0.2,3,0.5,3.9,1.7c0.6-0.1,1.3-0.1,2.1,0.5c0.8,0.6,1.3,1.6,1.3,2.6
	l0,0.8v1.2v1c0,1.8-0.9,3.5-2.4,4.4v0c0,1.8,1.3,3.4,3,3.8c2.1,0.6,3.6,2.2,4.1,4.3c0.1,0.3-0.1,0.5-0.4,0.5h-7.7"/>
</svg>
