<?xml version="1.0" standalone="no"?>
<!DOCTYPE svg PUBLIC "-//W3C//DTD SVG 20010904//EN"
 "http://www.w3.org/TR/2001/REC-SVG-20010904/DTD/svg10.dtd">
<svg version="1.0"
    xmlns="http://www.w3.org/2000/svg" width="216.000000pt" height="214.000000pt" viewBox="0 0 216.000000 214.000000" preserveAspectRatio="xMidYMid meet">
    <defs>
        <linearGradient id="grad" x1="0%" y1="0%" x2="0%" y2="100%">
            <stop offset="0%" style="stop-color:#ab1c71;stop-opacity:1" />
            <stop offset="100%" style="stop-color:#e62d5e;stop-opacity:1" />
        </linearGradient>
    </defs>
    <g transform="translate(0.000000,214.000000) scale(0.100000,-0.100000)" fill="url(#grad)" stroke="none">
        <path d="M980 2133 c-328 -35 -615 -207 -793 -475 -124 -186 -178 -368 -178
-599 0 -274 97 -521 285 -725 83 -91 214 -191 262 -200 110 -20 197 79 165
187 -9 31 -27 50 -84 92 -188 141 -290 299 -331 516 -20 104 -20 155 -1 266
69 395 417 674 815 652 127 -7 199 -25 307 -78 198 -98 353 -286 415 -506 28
-101 30 -285 4 -383 -44 -161 -115 -279 -236 -394 -124 -116 -260 -174 -304
-130 -25 25 -29 59 -20 178 5 61 9 161 9 222 0 104 -2 113 -28 153 -36 54 -92
80 -168 81 -73 0 -174 -31 -229 -71 l-43 -31 29 -13 c35 -14 64 -55 75 -104 5
-23 1 -106 -12 -226 -12 -104 -19 -221 -16 -260 14 -223 183 -327 432 -265
412 103 722 431 801 846 22 118 15 356 -14 459 -84 299 -258 526 -517 674
-178 102 -427 155 -625 134z"/>
        <path d="M1036 1505 c-165 -42 -221 -251 -100 -372 96 -95 247 -90 332 12 140
170 -17 414 -232 360z"/>
    </g>
</svg>
