<?xml version="1.0" standalone="no"?>
<!DOCTYPE svg PUBLIC "-//W3C//DTD SVG 20010904//EN"
 "http://www.w3.org/TR/2001/REC-SVG-20010904/DTD/svg10.dtd">
<svg version="1.0" xmlns="http://www.w3.org/2000/svg"
 width="360.000000pt" height="360.000000pt" viewBox="0 0 360.000000 360.000000"
 preserveAspectRatio="xMidYMid meet">

<g transform="translate(0.000000,360.000000) scale(0.100000,-0.100000)"
fill="#4ca1ff" stroke="none">
<path d="M2080 3376 c-160 -34 -257 -161 -248 -327 7 -126 67 -216 177 -268
47 -22 70 -26 141 -26 98 0 152 20 217 79 94 84 126 250 72 366 -64 136 -210
208 -359 176z"/>
<path d="M1860 2540 c-205 -36 -483 -237 -673 -487 -45 -59 -48 -66 -54 -142
-10 -128 -6 -128 108 11 161 196 224 262 273 289 51 27 69 22 95 -23 14 -24 9
-45 -67 -294 -291 -961 -396 -1315 -400 -1355 -14 -140 93 -271 258 -314 54
-14 176 -4 252 20 184 60 364 215 522 450 53 78 54 82 60 166 3 47 3 88 0 92
-3 3 -73 -75 -155 -174 -187 -224 -248 -272 -303 -236 -46 30 -59 -22 204 842
257 847 242 794 236 869 -10 127 -79 224 -190 265 -68 25 -112 30 -166 21z"/>
</g>
</svg>
